<svg id="eq1nhJ6DvVt1" xmlns="http://www.w3.org/2000/svg" xmlns:xlink="http://www.w3.org/1999/xlink" viewBox="0 0 255.12 198.43" shape-rendering="geometricPrecision" text-rendering="geometricPrecision">
<style><![CDATA[
#eq1nhJ6DvVt2_to {animation: eq1nhJ6DvVt2_to__to 3000ms linear infinite normal forwards}@keyframes eq1nhJ6DvVt2_to__to { 0% {transform: translate(125.924995px,171.029999px)} 46.666667% {transform: translate(125.924995px,171.029999px)} 100% {transform: translate(125.924995px,171.029999px)}} #eq1nhJ6DvVt5_to {animation: eq1nhJ6DvVt5_to__to 3000ms linear infinite normal forwards}@keyframes eq1nhJ6DvVt5_to__to { 0% {transform: translate(209.804993px,38.885001px)} 16.666667% {transform: translate(209.804993px,45px)} 33.333333% {transform: translate(209.804993px,40px)} 53.333333% {transform: translate(209.804993px,38.89px)} 73.333333% {transform: translate(209.804993px,34px)} 100% {transform: translate(209.804993px,38.885001px)}} #eq1nhJ6DvVt14_to {animation: eq1nhJ6DvVt14_to__to 3000ms linear infinite normal forwards}@keyframes eq1nhJ6DvVt14_to__to { 0% {transform: translate(123.260395px,120px)} 23.333333% {transform: translate(123.260395px,115.639732px)} 46.666667% {transform: translate(123.260395px,112px)} 73.333333% {transform: translate(123.260395px,115.639732px)} 100% {transform: translate(123.260395px,118px)}}
]]></style>
<defs><linearGradient id="eq1nhJ6DvVt16-fill" x1="96.7816" y1="112.6228" x2="186.401" y2="112.6228" spreadMethod="pad" gradientUnits="userSpaceOnUse" gradientTransform="translate(0 0)"><stop id="eq1nhJ6DvVt16-fill-0" offset="0%" stop-color="#a6c970"/><stop id="eq1nhJ6DvVt16-fill-1" offset="96.25%" stop-color="#edf2c7"/></linearGradient><linearGradient id="eq1nhJ6DvVt17-fill" x1="97.0003" y1="128.7675" x2="165.0573" y2="128.7675" spreadMethod="pad" gradientUnits="userSpaceOnUse" gradientTransform="translate(0 0)"><stop id="eq1nhJ6DvVt17-fill-0" offset="0%" stop-color="#a6c970"/><stop id="eq1nhJ6DvVt17-fill-1" offset="96.25%" stop-color="#edf2c7"/></linearGradient><linearGradient id="eq1nhJ6DvVt18-fill" x1="60.9685" y1="105.3736" x2="108.6081" y2="124.5037" spreadMethod="pad" gradientUnits="userSpaceOnUse" gradientTransform="translate(0 0)"><stop id="eq1nhJ6DvVt18-fill-0" offset="0%" stop-color="#a6c970"/><stop id="eq1nhJ6DvVt18-fill-1" offset="21.35%" stop-color="#a9cb73"/><stop id="eq1nhJ6DvVt18-fill-2" offset="39.78%" stop-color="#b1cf7c"/><stop id="eq1nhJ6DvVt18-fill-3" offset="57.3%" stop-color="#bfd78c"/><stop id="eq1nhJ6DvVt18-fill-4" offset="74.27%" stop-color="#d1e2a4"/><stop id="eq1nhJ6DvVt18-fill-5" offset="90.69%" stop-color="#e8f0c1"/><stop id="eq1nhJ6DvVt18-fill-6" offset="93.83%" stop-color="#edf2c7"/></linearGradient></defs><g id="eq1nhJ6DvVt2_to" transform="translate(125.924995,171.029999)"><g transform="translate(-125.924995,-171.029999)"><path d="M110.73,150.24c-.47,6.99-.95,13.97-1.42,20.96c2.74,2.92,5.52,6.05,8.3,9.39c1.28,1.54,2.52,3.07,3.71,4.59-.31-.33-1.4-1.42-3.17-1.64-.84-.1-1.36.11-4.26,1.42-3.44,1.56-4.23,1.95-5.24,2.51-2.38,1.32-2.96,1.91-3.38,2.51-.73,1.04-.99,2.12-1.09,2.84-.08-1.08-.37-2.77-1.42-4.48-.77-1.26-1.63-2.01-2.84-3.06-1.72-1.5-2.71-2.36-4.04-2.84-3.03-1.09-6.14.43-7.32,1.09c5.24-4.11,10.48-8.22,15.72-12.34.3-7.32.61-14.63.91-21.95.8.07,1.67.18,2.58.33c1.08.2,2.07.43,2.96.67Z" fill="#c89a59"/><path d="M141.12,150.24c.47,6.99.95,13.97,1.42,20.96-2.74,2.92-5.52,6.05-8.3,9.39-1.28,1.54-2.52,3.07-3.71,4.59.31-.33,1.4-1.42,3.17-1.64.84-.1,1.36.11,4.26,1.42c3.44,1.56,4.23,1.95,5.24,2.51c2.38,1.32,2.96,1.91,3.38,2.51.73,1.04.99,2.12,1.09,2.84.08-1.08.37-2.77,1.42-4.48.77-1.26,1.63-2.01,2.84-3.06c1.72-1.5,2.71-2.36,4.04-2.84c3.03-1.09,6.14.43,7.32,1.09-5.24-4.11-10.48-8.22-15.72-12.34-.3-7.32-.61-14.63-.91-21.95-.8.07-1.67.18-2.58.33-1.08.2-2.07.43-2.96.67Z" fill="#c89a59"/></g></g><g id="eq1nhJ6DvVt5_to" transform="translate(209.804993,38.885001)"><g transform="translate(-209.804993,-38.885001)"><path d="" fill="#f1f1ea"/><g><path d="M145.59,74.39c-1.68-4.06-3.88-7.38-6.41-11.19-1.76-2.65-3.23-4.6-3.82-7.78-.67-3.58.44-5.14.68-5.46.74-.98.7-1.22,2.05-2.23c2.24-1.68,3.16-4.25,3.64-5.37.47-1.09,1.18-3.43.14-6.73-1.05-3.32-1.64-2.64-4.05-7.69-1.28-2.68-.44-3.09-2.09-7.37-1.51-3.89-3.14-6-5.18-7.05-3.35-1.71-6.96-1.41-8.41-1.23-1.24.15-4.92.65-7.78,3.55-2.81,2.85-3.89,6.18-4.23,7.84-.33,1.6-.45,2.53-1.02,3.96-1.01,2.53-2.52,3.13-3.75,4.98-2.7,4.03-.88,9.29-.82,9.55.92,3.79,3.57,6.02,4.64,6.82.5.84,1.05,1.94,1.5,3.27c0,0,.66,1.96.82,3.96.24,2.98-1.36,5.87-4.77,11.73-4.18,7.18-4.57,7.66-5.46,9.82-1.43,3.49-2.13,6.46-2.46,8.05-.48,2.32-.71,4.37-.82,6c16.83,0,33.65,0,50.48,0c.12-2.01.13-4.64-.28-7.69-.64-4.72-1.99-8.26-2.6-9.74Z" fill="#fffef3" stroke="#967558" stroke-width="0.75" stroke-miterlimit="10"/><path d="M119.12,36.19c.2.44.88,1.8,2.46,2.59.28.14,1.26.6,2.46.55c1.97-.09,3.79-1.55,4.77-3.68.25,1.06.56,1.94.82,2.59.29.73.72,1.79,1.5,3c.68,1.05.86,1.03.95,1.5.21,1-.5,1.58-1.23,3.14-.3.63-.56,1.65-1.09,3.68-.8,3.05-.61,3.25-1.09,3.82-1.15,1.35-3.21,1.36-4.64,1.36-1.52.01-3.43.02-4.5-1.23-.8-.93-.18-1.44-.95-4.5-.56-2.23-1.33-3.67-1.64-4.23-.5-.89-.99-1.58-1.36-2.05.65-.48,1.89-1.51,2.73-3.27.62-1.32.78-2.52.81-3.27Z" fill="#c6a552"/><path d="M134.09,28.7c.25.09.76.31,1.16.82.45.57.51,1.19.55,1.64.04.5.09,1.02-.2,1.57-.36.67-1.01.94-1.23,1.02-.21-.07-1.17-.41-1.57-1.36-.21-.5-.17-.96-.14-1.23.14-1.33,1.08-2.18,1.43-2.46Z" fill="#3d332b"/><path d="M112.83,33.66c-.25-.09-.74-.3-1.12-.79-.44-.56-.49-1.15-.53-1.59-.04-.49-.09-.99.2-1.52.35-.65.98-.91,1.19-.99.2.07,1.14.4,1.52,1.32.2.49.16.93.13,1.19-.14,1.28-1.06,2.11-1.39,2.38Z" fill="#3d332b"/></g><path d="" fill="#fffef3" stroke="#967558" stroke-width="0.75" stroke-miterlimit="10"/><path d="" fill="#fffef3" stroke="#967558" stroke-width="0.75" stroke-miterlimit="10"/></g></g><g id="eq1nhJ6DvVt14_to" transform="translate(123.260395,120)"><g transform="translate(-123.260395,-115.639732)"><g><path d="M118.65,74.71c-.08-.31-.87-3.39.73-4.73.83-.69,1.99-.66,3.64-.36c4.06.72,6.44,2.14,8.37,2.91c3.63,1.46,4.51.16,10.55.73c6.06.57,10.52,2.37,14.55,4c5.03,2.04,8.48,4.16,11.46,6c3.84,2.37,5.76,3.56,7.82,5.64c1.56,1.58,4.92,4.97,6.37,10.19c1.11,3.99-.13,4.63,1.09,9.64c1.09,4.5,2.26,4.71,2.91,8c.86,4.4-.45,7.98-2.18,12.73-2.38,6.51-3.95,6.27-6.37,13.28-1.22,3.54-1.2,4.7-2.55,6.37-1.78,2.19-4.1,2.36-10.55,4.37-3.08.95-5.54,1.81-7.09,2.36c1-3.69,2.64-5.82,4-7.09c1.34-1.26,2.2-1.49,2.73-2.73.97-2.27-.48-4.91-1.82-7.28-.91-1.6-2.92-5.14-6.91-8.19-1.99-1.52-3.49-2.16-4.37-4.18-.8-1.87-.21-2.92-1.09-3.64-1.7-1.39-4.78,1.83-7.46.55-2.12-1.01-1.31-3.56-3.46-4.73-2.23-1.22-3.8,1.17-8.19.91-.28-.02-4.8-.34-7.64-3.64-.7-.81-1.68-1.98-1.46-3.46.22-1.44,1.45-2.3,1.82-2.55-.97.49-3.6,1.66-6.91,1.09-1.04-.18-3.68-.64-5.46-2.73-1.68-1.99-.62-3.13-2.36-5.09-1.73-1.95-3.24-1.35-4.55-3.46-.84-1.35-.63-2.27-1.64-2.91-1.18-.75-2.08.13-3.09-.55-1.4-.92-1.7-3.91-.55-5.64.71-1.07,1.66-1.18,1.64-1.82-.04-1.02-2.48-.92-3.46-2.55-.96-1.61-.03-4.17,1.09-5.64c1.24-1.64,2.14-1.19,4.73-3.46c1.88-1.65,1.69-2.15,2.91-2.73c2.35-1.12,5.04-.22,5.64,0c2.55.94,3.19,2.59,4.73,2.36c1.14-.14,1.92-1.18,2.38-1.97Z" fill="url(#eq1nhJ6DvVt16-fill)"/><path d="M98.82,96.17c-.88,1.84-1.07,3.35-1.09,4.37-.05,2.47.91,2.88.73,5.46-.12,1.76-.65,2.76,0,3.64.46.63,1.25.83,1.82.91.91.23,2.17.7,3.09,1.82.73.89.62,1.43,1.27,2.18c1.28,1.48,3.14,1,4.37,1.64c1.39.72,2.48,3.15,1.64,10.19-.2-.68-.51-1.44-.91-1.46-.68-.02-1.23,2.15-1.82,4.37-2.61,9.79-3.57,11.02-2.55,13.1c1.07,2.17,2.57,1.76,3.09,3.82.51,2-.63,4-2.91,8-1.71,3-2.5,3.56-2.91,3.82-2.16,1.35-4.63.95-5.64.73.58.92,1.55,2.15,3.09,2.73c2.04.77,3.37-.25,7.46-1.09.44-.09,4.2-.84,8.55-.73c1.63.04,2.42.18,6.18.73c6.88.99,10.32,1.49,10.91,1.46c4.75-.28,4.85-2.07,11.82-3.09c2.37-.35,3.25-.27,5.09-.91c1.93-.67,3.12-1.5,5.09-1.46c1.1.03,1.99.32,2.55.55c1.35-1.37,5.75-5.16,7.05-9.14.7-2.14-.09-5.12-1.77-9.78-1.84-5.07-5.51-4.57-5.18-7.21.14-1.11-4.17-4.62-5.73-4.98-1.53-.36-1.38-4.28-2.66-4.77-1.07-.41-4.92,2.43-5.93,1.64-1.51-1.17-1.99-2.32-3.21-3.68-1.34-1.5-2.54-1.49-3.11-1.73-2.23-.95-3.3.67-6.78.91-3.41.23-6.89-1.52-7.16-3.68-.16-1.34.27-1.61-.25-3.23-.04-.13-.42-1.26-1.46-1.82-1.61-.88-2.94.64-5.46.73-2.4.08-3.16-3.07-4.57-4.81-1.83-2.26-2.43-2.14-4.34-3.74-1.66-1.39-1.77-1.96-3.09-3.5-1.28-1.48-2.09-1.83-3.27-2.32-.7-.32-1.5.04-2,.33Z" fill="url(#eq1nhJ6DvVt17-fill)"/><path d="M99,78.34c-1.84-.25-4.39-.35-7.28.36-3.42.84-5.71,2.43-9.28,4.91-2,1.39-3.88,2.69-6,4.91-1.91,1.99-3,3.66-5.09,6.91-2.69,4.17-4.03,6.26-4.73,8-2.45,6.16-.76,9.04-4,14.01-1.09,1.68-1.46,1.62-2,2.91-.65,1.56-1.16,4.15,1.64,11.28c2.27,5.8,3.8,9.69,7.64,13.46.76.74,3.05,2.38,7.64,5.64c1.7,1.21,3.92,2.69,8.37,5.64c4.99,3.31,6.5,4.26,8.91,4.55c1.16.14,3.16.4,5.27-.55.87-.38,2.1-1.12,4.91-5.27c3.14-4.64,4.71-6.96,4.18-9.09-.56-2.28-2.39-1.97-3.27-4.55-.76-2.22.15-3.75,1.46-9.09.65-2.65,1.04-4.82,1.27-6.18.66.17,1.43.22,2-.18c1.51-1.07.52-4.65,0-6.55-.7-2.54-1.19-4.31-2.73-5.09-1.76-.9-3.06.44-4.37-.55-1.59-1.21-.51-3.86-2-4.73-1.27-.74-2.66.86-3.64.18-1.1-.76.22-3.05.36-8.19.08-2.94-.31-3.56.36-4.91c1.04-2.07,2.79-2.25,2.91-3.82.12-1.62-1.71-2.08-1.64-3.82.07-1.84,2.16-2.3,2-3.82-.14-1.29-1.7-1.44-2.55-3.27-.52-1.18-.45-2.35-.34-3.1Z" fill="url(#eq1nhJ6DvVt18-fill)"/></g><path d="M182.74,135.82c.14-5.98-.5-15.12-4.73-24.92-.92-2.14-3.48-7.7-8.37-13.64-2.82-3.42-5.01-6.04-8.91-8.19-4.18-2.3-8.21-2.9-10.73-3.27-3.39-.5-6.05-.43-8.37-.36-4.85.15-7.12.79-10,1.09-3.52.37-8.59.3-15.1-1.82" fill="none" stroke="#fafae2" stroke-miterlimit="10"/><path d="M120.35,92.35c2.36-.8,4.21-1.5,5.46-2c1.4-.56,2.01-.83,2.91-.73c1.8.21,1.9,1.59,3.64,2c1.14.27,1.69-.19,5.27-1.27c1.41-.43,2.56-.73,3.27-.91" fill="none" stroke="#fafae2" stroke-miterlimit="10"/><path d="M140.91,95.26c1.53.68,3.56,1.4,6,1.82c1.63.28,3.1.37,4.37.36" fill="none" stroke="#fafae2" stroke-miterlimit="10"/><path d="M154,99.62c1.19.61,4.22,1.98,7.09,1.27c1.73-.43,2.91-1.09,2.91-1.09c1.5-.84,1.81-1.54,2.55-1.46.99.11,1.24,1.47,2.36,2.91.72.92,1.95,2.07,4.18,2.91" fill="none" stroke="#fafae2" stroke-miterlimit="10"/><path d="M139.63,103.99c1.25.1,3.16.16,5.46-.18c2.83-.42,3.14-.99,4.91-.91c3.13.14,3.52,1.96,6.18,1.64c1.81-.22,3.45-1.28,4-1.64.8-.52,1.41-1.05,1.82-1.46" fill="none" stroke="#fafae2" stroke-miterlimit="10"/><path d="M151.46,112.9c5.37-.21,8.12,1.28,9.64,2.73c1.24,1.19,1.92,2.59,3.46,2.73c1.32.12,1.78-.83,4.73-2.36c2.05-1.07,3.32-1.72,4.91-1.64c1.72.09,3.05.99,3.82,1.64" fill="none" stroke="#fafae2" stroke-miterlimit="10"/><path d="M177.47,107.44c.39-.15,3.38-1.41,4.37-4.73.81-2.72-.29-4.97-.55-5.46" fill="none" stroke="#fafae2" stroke-miterlimit="10"/><path d="M172.56,84.71c.08.91.03,2.1-.73,2.91-.79.84-1.69.59-2,1.27-.45,1.01,1.31,2.08,1.64,4.18.2,1.26-.2,2.38-.55,3.09" fill="none" stroke="#fafae2" stroke-miterlimit="10"/><path d="M146.54,75.07c.52,1.15.95,2.66.36,4-.45,1.04-1.22,1.35-1.27,2.18-.04.68.4,1.65,2.55,2.91" fill="none" stroke="#fafae2" stroke-miterlimit="10"/><path d="M132.72,73.61c.21,2.71,1.13,4.03,2,4.73c1.74,1.41,3.83.81,5.46,2.55.82.88,1.14,1.95,1.27,2.73" fill="none" stroke="#fafae2" stroke-miterlimit="10"/><path d="M121.44,156.01c2.66-3.72,3.01-6.55,2.73-8.55-.3-2.16-1.52-4.65-.55-5.46.35-.29.87-.26,1.27-.18.48-1.58.81-3.69-.18-5.46-1.12-1.99-3-1.92-3.82-3.82-.84-1.96.52-3.5.91-6c.33-2.15-.03-5.27-3.09-9.46" fill="none" stroke="#fafae2" stroke-miterlimit="10"/><path d="M124.17,119.45c.94.93,2.51,2.73,3.46,5.46c1.28,3.68.69,6.87.36,8.19" fill="none" stroke="#fafae2" stroke-miterlimit="10"/><path d="M130.54,143.46c1.8,1.19,3.62,2.46,5.46,3.82.49.36.98.73,1.46,1.09" fill="none" stroke="#fafae2" stroke-miterlimit="10"/><path d="M137.45,123.45c1,4.92,1.91,8.82,2.55,11.46.85,3.5,1.28,4.97,1.09,7.28-.27,3.38-1.64,5.81-2.91,8-1.21,2.1-3.43,5.32-7.28,8.37" fill="none" stroke="#fafae2" stroke-miterlimit="10"/><path d="M145.27,127.82c3.44,2.65,4.17,4.85,4.18,6.37.03,2.08-1.27,3.05-1.46,5.46-.2,2.64,1.08,4.89,2.18,6.37" fill="none" stroke="#fafae2" stroke-miterlimit="10"/><path d="M151.82,136.91c.84,1.75,2.52,5.96,1.27,10.73-.74,2.82-2.24,4.81-3.27,6.18-2.04,2.72-4.29,4.45-5.82,5.46" fill="none" stroke="#fafae2" stroke-miterlimit="10"/><path d="M159.82,139.64c-.79,2.3-1.58,4.61-2.36,6.91" fill="none" stroke="#fafae2" stroke-miterlimit="10"/><path d="M84.52,152.55c-.05-1.53-.32-3.73-1.46-6-1.11-2.23-2.04-2.51-4.91-6-.85-1.04-2.92-3.63-4.73-7.28-1.48-2.98-1.82-4.7-1.09-5.82.43-.67,1.23-1.1,1.09-1.46-.18-.45-1.5.16-2.18-.36-1.44-1.09.5-6.73,3.27-11.1c1.25-1.97,1.47-1.79,3.09-4.37c2.32-3.68,2.16-4.51,3.64-5.64c1.97-1.51,3.2-.76,5.64-2.36c1.64-1.08,2.66-2.45,3.27-3.46" fill="none" stroke="#fafae2" stroke-miterlimit="10"/><path d="M98.53,104.35c-.57.24-1.39.61-2.36,1.09-2.51,1.24-4.01,2.28-6.37,3.82-5.26,3.44-5.16,3.12-7.28,4.73-2.55,1.94-3.84,2.94-4.55,4.37-.75,1.51-.76,2.73-2,4.55-.75,1.11-1.58,1.88-2.18,2.36" fill="none" stroke="#fafae2" stroke-miterlimit="10"/><path d="M82.34,118.18c3.07-1.34,5.57-1.62,7.28-1.64c2.13-.02,3.11.38,5.27.36c2.98-.02,5.38-.81,6.91-1.46" fill="none" stroke="#fafae2" stroke-miterlimit="10"/><path d="M80.88,130.55c-.85,1.82-1.7,3.64-2.55,5.46" fill="none" stroke="#fafae2" stroke-miterlimit="10"/><path d="" fill="none" stroke="#fafae2" stroke-miterlimit="10"/><path d="M71.97,142c.77.68,2.23,1.78,4.37,2.36c1.47.4,2.75.42,3.64.36" fill="none" stroke="#fafae2" stroke-miterlimit="10"/><path d="M93.07,128.18c-.18,1.68-.71,4.06-2.36,6.18-2.44,3.13-5.04,2.76-5.82,5.27-.76,2.48,1.32,4.27.18,7.64-.3.9-.72,1.57-1,1.97" fill="none" stroke="#fafae2" stroke-miterlimit="10"/><path d="M87.07,143.46c2.47-1.76,4.56-2.25,6-2.36c2.17-.18,3.7.4,5.46-.55c1.25-.67,1.96-1.76,2.36-2.55" fill="none" stroke="#fafae2" stroke-miterlimit="10"/><path d="M103.62,130.36c.02,1.51.19,3.26.91,3.46.67.18,1.38-1.11,1.82-.91.55.25-.27,2.41-.36,5.09-.1,3,.76,5.45,1.09,6.37c1.17,3.22,2.49,3.84,2.18,5.82-.13.82-.42,1.11-.91,3.09-.29,1.15-.45,2.11-.55,2.73" fill="none" stroke="#fafae2" stroke-miterlimit="10"/></g></g></svg>
